<svg xmlns="http://www.w3.org/2000/svg" viewBox="0 0 1200 1050" font-family="Inter, Arial, sans-serif">
  <defs>
    <marker id="arrow" viewBox="0 0 10 10" refX="10" refY="5" markerWidth="6" markerHeight="6" orient="auto">
      <path d="M0,0 L10,5 L0,10 Z" fill="#646464"/>
    </marker>
    <marker id="arrow-blue" viewBox="0 0 10 10" refX="10" refY="5" markerWidth="6" markerHeight="6" orient="auto">
      <path d="M0,0 L10,5 L0,10 Z" fill="#2563EB"/>
    </marker>
    <filter id="shadow" x="-5%" y="-5%" width="110%" height="110%">
      <feDropShadow dx="0" dy="2" stdDeviation="3" flood-opacity="0.1"/>
    </filter>
  </defs>

  <!-- Background -->
  <rect width="1200" height="1050" fill="#FFFFFF" rx="8"/>

  <!-- Title -->
  <text x="600" y="40" text-anchor="middle" font-size="24" font-weight="bold" fill="#141414">🌌 ATENA ECOSYSTEM — Peso Zero</text>
  <text x="600" y="62" text-anchor="middle" font-size="13" fill="#646464">Tudo que é pesado sai do POCO C85 e vai pras nuvens. Logs duplicados em Airtable + Supabase.</text>

  <!-- ==================== SECTION 1: POCO C85 ==================== -->
  <rect x="30" y="85" width="1140" height="100" rx="8" fill="#FFF0F0" stroke="#DC2626" stroke-width="2" filter="url(#shadow)"/>
  <text x="50" y="108" font-size="14" font-weight="bold" fill="#DC2626">📱 POCO C85 — TELA BURRA</text>
  <text x="50" y="128" font-size="11" fill="#646464">Só transmite comandos. NÃO processa IA, NÃO roda automação, NÃO armazena dados.</text>

  <!-- Poco C85 icon -->
  <rect x="80" y="140" width="220" height="35" rx="8" fill="#FEE2E2" stroke="#DC2626" stroke-width="1.5"/>
  <text x="190" y="163" text-anchor="middle" font-size="13" font-weight="bold" fill="#DC2626">📱 POCO C85</text>

  <!-- Arrow -->
  <line x1="300" y1="157" x2="350" y2="157" stroke="#646464" stroke-width="2" marker-end="url(#arrow)"/>

  <!-- WhatsApp -->
  <rect x="350" y="140" width="180" height="35" rx="8" fill="#DCF8C6" stroke="#25D366" stroke-width="1.5"/>
  <text x="440" y="163" text-anchor="middle" font-size="13" font-weight="bold" fill="#075E54">📲 WhatsApp</text>

  <!-- Arrow -->
  <line x1="530" y1="157" x2="580" y2="157" stroke="#646464" stroke-width="2" marker-end="url(#arrow)"/>

  <!-- Termux -->
  <rect x="580" y="140" width="180" height="35" rx="8" fill="#E0E7FF" stroke="#4338CA" stroke-width="1.5"/>
  <text x="670" y="163" text-anchor="middle" font-size="13" font-weight="bold" fill="#4338CA">🔧 Termux</text>

  <!-- ==================== SECTION 2: ZAPIA ==================== -->
  <rect x="30" y="200" width="1140" height="130" rx="8" fill="#FFF8F0" stroke="#FF9900" stroke-width="2" filter="url(#shadow)"/>
  <text x="50" y="223" font-size="14" font-weight="bold" fill="#FF9900">🧠 ZAPIA — Cérebro Central (Orquestrador)</text>
  <text x="50" y="243" font-size="11" fill="#646464">Interpreta comandos, escolhe a skill certa, gerencia agentes, executa automações e registra logs.</text>

  <!-- Arrow from Termux -->
  <line x1="670" y1="175" x2="670" y2="210" stroke="#646464" stroke-width="1.5" marker-end="url(#arrow)"/>

  <!-- Zapia Core -->
  <rect x="80" y="260" width="200" height="55" rx="10" fill="#232F3E" stroke="#FF9900" stroke-width="2"/>
  <text x="180" y="285" text-anchor="middle" font-size="15" font-weight="bold" fill="#FFFFFF">🧠 Zapia AI</text>
  <text x="180" y="303" text-anchor="middle" font-size="10" fill="#FFD700">Cérebro do ecossistema</text>

  <!-- Skills -->
  <rect x="330" y="260" width="150" height="55" rx="8" fill="#FCE7F3" stroke="#F472B6" stroke-width="1.5"/>
  <text x="405" y="283" text-anchor="middle" font-size="12" font-weight="bold" fill="#BE185D">🎨 Skills Criativas</text>
  <text x="405" y="303" text-anchor="middle" font-size="10" fill="#BE185D">Copy-Angel, Design-Angel</text>

  <rect x="510" y="260" width="150" height="55" rx="8" fill="#E0F2FE" stroke="#60A5FA" stroke-width="1.5"/>
  <text x="585" y="283" text-anchor="middle" font-size="12" font-weight="bold" fill="#1E40AF">🗄️ Skills de Dados</text>
  <text x="585" y="303" text-anchor="middle" font-size="10" fill="#1E40AF">Airtable, Cloudflare AI</text>

  <rect x="690" y="260" width="150" height="55" rx="8" fill="#EDE9FE" stroke="#A066F0" stroke-width="1.5"/>
  <text x="765" y="283" text-anchor="middle" font-size="12" font-weight="bold" fill="#5B21B6">🤖 Skills de IA</text>
  <text x="765" y="303" text-anchor="middle" font-size="10" fill="#5B21B6">NVIDIA NIM, Cloudflare</text>

  <rect x="870" y="260" width="150" height="55" rx="8" fill="#FEF3C7" stroke="#F59E0B" stroke-width="1.5"/>
  <text x="945" y="283" text-anchor="middle" font-size="12" font-weight="bold" fill="#92400E">👻 Skills Vigilância</text>
  <text x="945" y="303" text-anchor="middle" font-size="10" fill="#92400E">Hunter, CyberGuard</text>

  <!-- Arrows -->
  <line x1="280" y1="287" x2="330" y2="287" stroke="#646464" stroke-width="1.5" marker-end="url(#arrow)"/>
  <line x1="280" y1="287" x2="510" y2="287" stroke="#646464" stroke-width="1.5" marker-end="url(#arrow)"/>
  <line x1="280" y1="287" x2="690" y2="287" stroke="#646464" stroke-width="1.5" marker-end="url(#arrow)"/>
  <line x1="280" y1="287" x2="870" y2="287" stroke="#646464" stroke-width="1.5" marker-end="url(#arrow)"/>

  <!-- ==================== SECTION 3: AGENTS ==================== -->
  <rect x="30" y="345" width="1140" height="100" rx="8" fill="#F5F3FF" stroke="#A066F0" stroke-width="1.5" filter="url(#shadow)"/>
  <text x="50" y="368" font-size="14" font-weight="bold" fill="#5B21B6">🤖 AGENTES DE MONITORAMENTO — 24/7 (rodam nos crons do Zapia, nenhum peso no celular)</text>

  <rect x="80" y="385" width="200" height="45" rx="8" fill="#EDE9FE" stroke="#A066F0" stroke-width="1.5"/>
  <text x="180" y="405" text-anchor="middle" font-size="13" font-weight="bold" fill="#5B21B6">👻 HUNTER</text>
  <text x="180" y="420" text-anchor="middle" font-size="10" fill="#5B21B6">06h / 12h / 18h</text>

  <rect x="330" y="385" width="200" height="45" rx="8" fill="#EDE9FE" stroke="#A066F0" stroke-width="1.5"/>
  <text x="430" y="405" text-anchor="middle" font-size="13" font-weight="bold" fill="#5B21B6">🛡️ CYBERGUARD</text>
  <text x="430" y="420" text-anchor="middle" font-size="10" fill="#5B21B6">06h / 12h / 18h</text>

  <rect x="580" y="385" width="200" height="45" rx="8" fill="#EDE9FE" stroke="#A066F0" stroke-width="1.5"/>
  <text x="680" y="405" text-anchor="middle" font-size="13" font-weight="bold" fill="#5B21B6">👁️ ORACLE</text>
  <text x="680" y="420" text-anchor="middle" font-size="10" fill="#5B21B6">Supervisor</text>

  <rect x="830" y="385" width="200" height="45" rx="8" fill="#FEF3C7" stroke="#F59E0B" stroke-width="1.5"/>
  <text x="930" y="405" text-anchor="middle" font-size="13" font-weight="bold" fill="#92400E">📝 CRONS CONTEÚDO</text>
  <text x="930" y="420" text-anchor="middle" font-size="10" fill="#92400E">Roteiros 23h / 08h / 09h</text>

  <!-- ==================== SECTION 4: THE 5 CLOUDS ==================== -->
  <rect x="30" y="460" width="1140" height="290" rx="8" fill="#F0F9FF" stroke="#2563EB" stroke-width="2" filter="url(#shadow)"/>
  <text x="50" y="483" font-size="16" font-weight="bold" fill="#1E40AF">☁️ AS 5 NUVENS — Onde tudo roda de graça</text>
  <text x="50" y="503" font-size="11" fill="#646464">Nenhum serviço pesado roda no POCO C85. Tudo foi migrado para estas 5 nuvens gratuitas.</text>

  <!-- Row 1: Render + Cloudflare -->
  <!-- Cloud 1: Render -->
  <rect x="80" y="520" width="240" height="100" rx="10" fill="#FEF2F2" stroke="#E86060" stroke-width="2"/>
  <text x="200" y="545" text-anchor="middle" font-size="14" font-weight="bold" fill="#DC2626">☁️ 1 — RENDER 🟢</text>
  <text x="200" y="565" text-anchor="middle" font-size="11" fill="#DC2626">Nuvem Principal</text>
  <line x1="100" y1="575" x2="300" y2="575" stroke="#FECACA" stroke-width="1"/>
  <text x="200" y="592" text-anchor="middle" font-size="11" fill="#DC2626">⚙️ n8n (orquestrador)</text>
  <text x="200" y="608" text-anchor="middle" font-size="11" fill="#DC2626">🧠 FreeLLMAPI (69 modelos)</text>

  <!-- Cloud 2: Cloudflare -->
  <rect x="360" y="520" width="240" height="100" rx="10" fill="#E0F2FE" stroke="#60A5FA" stroke-width="2"/>
  <text x="480" y="545" text-anchor="middle" font-size="14" font-weight="bold" fill="#1E40AF">☁️ 2 — CLOUDFLARE 🟢</text>
  <text x="480" y="565" text-anchor="middle" font-size="11" fill="#1E40AF">IA + Armazenamento</text>
  <line x1="380" y1="575" x2="580" y2="575" stroke="#BFDBFE" stroke-width="1"/>
  <text x="480" y="592" text-anchor="middle" font-size="11" fill="#1E40AF">🎨 Workers AI (FLUX, SDXL)</text>
  <text x="480" y="608" text-anchor="middle" font-size="11" fill="#1E40AF">🗂️ R2 Storage (10GB free)</text>

  <!-- Cloud 3: Koyeb -->
  <rect x="640" y="520" width="240" height="100" rx="10" fill="#FEF3C7" stroke="#F59E0B" stroke-width="2"/>
  <text x="760" y="545" text-anchor="middle" font-size="14" font-weight="bold" fill="#92400E">☁️ 3 — KOYEB ⏳</text>
  <text x="760" y="565" text-anchor="middle" font-size="11" fill="#92400E">Backup (não dorme)</text>
  <line x1="660" y1="575" x2="860" y2="575" stroke="#FDE68A" stroke-width="1"/>
  <text x="760" y="592" text-anchor="middle" font-size="11" fill="#92400E">🔄 Backup n8n + FreeLLMAPI</text>
  <text x="760" y="608" text-anchor="middle" font-size="11" fill="#92400E">⏰ 24/7 sem dormir</text>

  <!-- Row 2: SnapDeploy + Zeabur -->
  <!-- Cloud 4: SnapDeploy -->
  <rect x="260" y="640" width="240" height="100" rx="10" fill="#FCE7F3" stroke="#F472B6" stroke-width="2"/>
  <text x="380" y="665" text-anchor="middle" font-size="14" font-weight="bold" fill="#BE185D">☁️ 4 — SNAPDEPLOY ⏳</text>
  <text x="380" y="685" text-anchor="middle" font-size="11" fill="#BE185D">Testes Rápidos</text>
  <line x1="280" y1="695" x2="480" y2="695" stroke="#FBCFE8" stroke-width="1"/>
  <text x="380" y="712" text-anchor="middle" font-size="11" fill="#BE185D">⚡ Deploys em segundos</text>
  <text x="380" y="728" text-anchor="middle" font-size="11" fill="#BE185D">🧪 Protótipos experimentais</text>

  <!-- Cloud 5: Zeabur -->
  <rect x="540" y="640" width="240" height="100" rx="10" fill="#E0E7FF" stroke="#6366F1" stroke-width="2"/>
  <text x="660" y="665" text-anchor="middle" font-size="14" font-weight="bold" fill="#4338CA">☁️ 5 — ZEABUR ⏳</text>
  <text x="660" y="685" text-anchor="middle" font-size="11" fill="#4338CA">Redundância Extra</text>
  <line x1="560" y1="695" x2="740" y2="695" stroke="#C7D2FE" stroke-width="1"/>
  <text x="660" y="712" text-anchor="middle" font-size="11" fill="#4338CA">🔒 Fallback final</text>
  <text x="660" y="728" text-anchor="middle" font-size="11" fill="#4338CA">🌐 Última camada</text>

  <!-- Arrow from Zapia to Clouds -->
  <line x1="180" y1="330" x2="180" y2="460" stroke="#2563EB" stroke-width="1.5" marker-end="url(#arrow-blue)"/>
  <line x1="480" y1="330" x2="480" y2="460" stroke="#2563EB" stroke-width="1.5" marker-end="url(#arrow-blue)"/>
  <line x1="760" y1="330" x2="760" y2="460" stroke="#2563EB" stroke-width="1.5" marker-end="url(#arrow-blue)"/>

  <!-- ==================== SECTION 5: LOGS ==================== -->
  <rect x="30" y="765" width="1140" height="110" rx="8" fill="#ECFDF5" stroke="#34D399" stroke-width="2" filter="url(#shadow)"/>
  <text x="50" y="788" font-size="14" font-weight="bold" fill="#047857">🗄️ LOGS E DADOS — Dupla Escrita (nunca perde nada)</text>
  <text x="50" y="808" font-size="11" fill="#646464">Tudo que acontece é registrado em DOIS lugares ao mesmo tempo. Se um cair, o outro mantém.</text>

  <!-- Logs from agents -->
  <line x1="180" y1="450" x2="180" y2="765" stroke="#34D399" stroke-width="1.5" stroke-dasharray="5,3" marker-end="url(#arrow)"/>
  <line x1="430" y1="450" x2="430" y2="765" stroke="#34D399" stroke-width="1.5" stroke-dasharray="5,3" marker-end="url(#arrow)"/>
  <line x1="680" y1="450" x2="680" y2="765" stroke="#34D399" stroke-width="1.5" stroke-dasharray="5,3" marker-end="url(#arrow)"/>

  <!-- Airtable -->
  <rect x="200" y="825" width="300" height="40" rx="10" fill="#D1FAE5" stroke="#34D399" stroke-width="2"/>
  <text x="350" y="850" text-anchor="middle" font-size="14" font-weight="bold" fill="#047857">📊 AIRTABLE 🟢 — Banco Principal</text>

  <!-- Supabase -->
  <rect x="600" y="825" width="300" height="40" rx="10" fill="#E0E7FF" stroke="#6366F1" stroke-width="2"/>
  <text x="750" y="850" text-anchor="middle" font-size="14" font-weight="bold" fill="#4338CA">🗄️ SUPABASE 🔄 — Banco Secundário</text>

  <!-- Dupla escrita arrow -->
  <path d="M500,845 L600,845" stroke="#34D399" stroke-width="2" marker-end="url(#arrow)"/>
  <text x="550" y="838" text-anchor="middle" font-size="10" fill="#34D399">Dupla</text>
  <text x="550" y="855" text-anchor="middle" font-size="10" fill="#34D399">Escrita</text>

  <!-- ==================== SECTION 6: CLIENTS ==================== -->
  <rect x="30" y="890" width="1140" height="80" rx="8" fill="#FFF7ED" stroke="#FF9900" stroke-width="1.5" filter="url(#shadow)"/>
  <text x="50" y="913" font-size="14" font-weight="bold" fill="#FF9900">📊 CLIENTES — Conteúdo Produzido (roteiros gerados pelo Zapia, entregues no WhatsApp)</text>

  <rect x="80" y="930" width="300" height="30" rx="8" fill="#FEF2F2" stroke="#DC2626" stroke-width="1.5"/>
  <text x="230" y="950" text-anchor="middle" font-size="12" font-weight="bold" fill="#DC2626">👩‍⚖️ Dra. Luísa — Criminal</text>

  <rect x="420" y="930" width="300" height="30" rx="8" fill="#FEF3C7" stroke="#F59E0B" stroke-width="1.5"/>
  <text x="570" y="950" text-anchor="middle" font-size="12" font-weight="bold" fill="#92400E">👨‍⚖️ Dr. Luciano — Civil</text>

  <rect x="760" y="930" width="300" height="30" rx="8" fill="#FCE7F3" stroke="#F472B6" stroke-width="1.5"/>
  <text x="910" y="950" text-anchor="middle" font-size="12" font-weight="bold" fill="#BE185D">🎯 Angel Sakura — Design + Tech</text>

  <!-- Postagem automática -->
  <text x="600" y="1000" text-anchor="middle" font-size="11" fill="#A0AEC0">📱 Postagem automática em redes sociais: ⏳ Pendente (futuro com PC)</text>
</svg>